<svg xmlns="http://www.w3.org/2000/svg" width="512" height="512" viewBox="0 0 512 512" role="img" aria-label="Triply">
  <rect width="512" height="512" fill="#0096C7"/>
  <g transform="translate(135.3,37) scale(1.0)" fill="#ffffff" fill-rule="nonzero">
    <path d="M 216.554688 322.488281 L 14.441406 322.488281 C 11.503906 322.488281 9.121094 320.105469 9.121094 317.171875 C 9.121094 314.234375 11.503906 311.851562 14.441406 311.851562 L 216.554688 311.851562 C 219.492188 311.851562 221.875 314.234375 221.875 317.171875 C 221.875 320.105469 219.492188 322.488281 216.554688 322.488281 Z M 228.203125 235.164062 L 150.933594 208.230469 C 150.933594 208.230469 139.136719 168.136719 135.902344 155.96875 C 130.570312 135.960938 127.550781 119.578125 112.464844 116.140625 C 105.019531 114.441406 97.636719 118.28125 97.636719 125.917969 L 101.445312 194.136719 L 42.449219 175.5 L 33.449219 147.640625 C 31.195312 140.097656 24.417969 134.109375 17.644531 133.375 C 11.804688 132.746094 6.273438 135.949219 5.113281 141.703125 L 1.175781 165.882812 C -2.21875 186.167969 0.421875 205.0625 26.570312 214.230469 L 213.769531 274.960938 C 224.5 278.535156 236.148438 273.023438 240.203125 262.472656 C 244.394531 251.621094 239.03125 239.421875 228.203125 235.164062 Z"/>
  </g>
</svg>
