<svg xmlns="http://www.w3.org/2000/svg" xmlns:xlink="http://www.w3.org/1999/xlink" width="1920" zoomAndPan="magnify" viewBox="0 0 1440 809.999993" height="1080" preserveAspectRatio="xMidYMid meet" version="1.0"><defs><g/><clipPath id="60eea6e689"><path d="M 0 115.660156 L 241.5 115.660156 L 241.5 295.660156 L 0 295.660156 Z M 0 115.660156 " clip-rule="nonzero"/></clipPath><clipPath id="3aa9f14851"><rect x="0" width="1440" y="0" height="540"/></clipPath><clipPath id="2e9e334f41"><rect x="0" width="144" y="0" height="540"/></clipPath><clipPath id="0f6cce6d47"><rect x="0" width="19" y="0" height="60"/></clipPath><clipPath id="24fd2ec8f0"><rect x="0" width="19" y="0" height="60"/></clipPath><clipPath id="8a389c053e"><rect x="0" width="19" y="0" height="60"/></clipPath><clipPath id="b80821c3ee"><rect x="0" width="19" y="0" height="60"/></clipPath><clipPath id="3d8e69e556"><rect x="0" width="19" y="0" height="60"/></clipPath></defs><g clip-path="url(#60eea6e689)"><path fill="#0096c7" d="M 216.554688 322.488281 L 14.441406 322.488281 C 11.503906 322.488281 9.121094 320.105469 9.121094 317.171875 C 9.121094 314.234375 11.503906 311.851562 14.441406 311.851562 L 216.554688 311.851562 C 219.492188 311.851562 221.875 314.234375 221.875 317.171875 C 221.875 320.105469 219.492188 322.488281 216.554688 322.488281 Z M 228.203125 235.164062 L 150.933594 208.230469 C 150.933594 208.230469 139.136719 168.136719 135.902344 155.96875 C 130.570312 135.960938 127.550781 119.578125 112.464844 116.140625 C 105.019531 114.441406 97.636719 118.28125 97.636719 125.917969 L 101.445312 194.136719 L 42.449219 175.5 L 33.449219 147.640625 C 31.195312 140.097656 24.417969 134.109375 17.644531 133.375 C 11.804688 132.746094 6.273438 135.949219 5.113281 141.703125 L 1.175781 165.882812 C -2.21875 186.167969 0.421875 205.0625 26.570312 214.230469 L 213.769531 274.960938 C 224.5 278.535156 236.148438 273.023438 240.203125 262.472656 C 244.394531 251.621094 239.03125 239.421875 228.203125 235.164062 Z M 228.203125 235.164062 " fill-opacity="1" fill-rule="nonzero"/></g><g transform="matrix(1, 0, 0, 1, 0, 177)"><g clip-path="url(#3aa9f14851)"><g fill="#ffffff" fill-opacity="1"><g transform="translate(0.0601014, 400.676002)"><g><path d="M 238.75 -276.890625 L 238.75 -207.15625 L 160.390625 -207.15625 L 160.390625 0 L 84.5 0 L 84.5 -207.15625 L 6.15625 -207.15625 L 6.15625 -276.890625 Z M 238.75 -276.890625 "/></g></g></g><g fill="#ffffff" fill-opacity="1"><g transform="translate(244.955282, 400.676002)"><g><path d="M 107.890625 0 L 32.8125 0 L 32.8125 -276.890625 L 148.90625 -276.890625 C 170.789062 -276.890625 190.484375 -273.472656 207.984375 -266.640625 C 225.484375 -259.804688 239.289062 -249.617188 249.40625 -236.078125 C 259.53125 -222.546875 264.59375 -205.523438 264.59375 -185.015625 C 264.59375 -166.691406 259.804688 -150.625 250.234375 -136.8125 C 240.660156 -123 227.804688 -113.492188 211.671875 -108.296875 C 218.785156 -103.921875 224.9375 -97.628906 230.125 -89.421875 C 235.320312 -81.222656 240.929688 -70.832031 246.953125 -58.25 L 275.25 0 L 192.796875 0 L 166.953125 -52.09375 C 162.304688 -61.664062 156.769531 -68.363281 150.34375 -72.1875 C 143.914062 -76.019531 134.550781 -77.9375 122.25 -77.9375 L 108.296875 -77.9375 Z M 149.734375 -207.15625 L 108.703125 -207.15625 L 108.296875 -145.21875 L 148.90625 -145.21875 C 160.125 -145.21875 169.21875 -148.085938 176.1875 -153.828125 C 183.164062 -159.578125 186.65625 -167.375 186.65625 -177.21875 C 186.65625 -187.601562 183.164062 -195.1875 176.1875 -199.96875 C 169.21875 -204.757812 160.398438 -207.15625 149.734375 -207.15625 Z M 149.734375 -207.15625 "/></g></g></g><g fill="#ffffff" fill-opacity="1"><g transform="translate(536.614406, 400.676002)"><g/></g></g><g fill="#ffffff" fill-opacity="1"><g transform="translate(651.473136, 400.676002)"><g><path d="M 108.703125 -0.40625 L 32.8125 0 L 32.8125 -276.890625 L 139.0625 -276.890625 C 180.082031 -276.890625 212.007812 -267.726562 234.84375 -249.40625 C 257.6875 -231.082031 269.109375 -205.785156 269.109375 -173.515625 C 269.109375 -140.429688 258.164062 -114.519531 236.28125 -95.78125 C 214.40625 -77.050781 183.367188 -67.6875 143.171875 -67.6875 L 108.703125 -67.6875 Z M 141.109375 -207.15625 L 108.703125 -207.15625 L 108.703125 -137.421875 L 141.109375 -137.421875 C 174.472656 -137.421875 191.15625 -149.453125 191.15625 -173.515625 C 191.15625 -195.941406 174.472656 -207.15625 141.109375 -207.15625 Z M 141.109375 -207.15625 "/></g></g></g><g fill="#ffffff" fill-opacity="1"><g transform="translate(930.825959, 400.676002)"><g><path d="M 108.703125 -276.890625 L 108.703125 -69.734375 L 230.953125 -69.734375 L 230.953125 0 L 98.453125 0 C 75.203125 0 58.445312 -5.738281 48.1875 -17.21875 C 37.9375 -28.707031 32.8125 -44.160156 32.8125 -63.578125 L 32.8125 -276.890625 Z M 108.703125 -276.890625 "/></g></g></g><g fill="#ffffff" fill-opacity="1"><g transform="translate(1165.876158, 400.676002)"><g><path d="M 69.328125 -119.375 L 2.046875 -276.890625 L 83.6875 -276.890625 L 137.421875 -142.34375 L 190.34375 -276.890625 L 271.96875 -276.890625 L 204.703125 -119.375 C 201.140625 -111.445312 196.894531 -104.40625 191.96875 -98.25 C 187.050781 -92.09375 181.585938 -86.960938 175.578125 -82.859375 L 175.578125 0 L 99.6875 0 L 99.6875 -82.046875 C 93.664062 -86.148438 88.054688 -91.273438 82.859375 -97.421875 C 77.660156 -103.578125 73.148438 -110.894531 69.328125 -119.375 Z M 69.328125 -119.375 "/></g></g></g></g></g><g transform="matrix(1, 0, 0, 1, 527, 177)"><g clip-path="url(#2e9e334f41)"><g fill="#ffffff" fill-opacity="1"><g transform="translate(0.621581, 400.676002)"><g><path d="M 28.585938 -281.132812 L 112.941406 -281.132812 L 112.941406 4.230469 L 28.585938 4.230469 Z M 37.046875 -272.671875 L 37.046875 -4.230469 L 104.480469 -4.230469 L 104.480469 -272.671875 Z M 37.046875 -272.671875 "/></g></g></g></g></g><g transform="matrix(1, 0, 0, 1, 589, 305)"><g clip-path="url(#0f6cce6d47)"><g fill="#ffffff" fill-opacity="1"><g transform="translate(17.081073, 16.495982)"><g><path d="M -3.5625 30 L -11.78125 30 L -11.78125 0 L -3.5625 0 Z M -3.5625 30 "/></g></g></g></g></g><g transform="matrix(1, 0, 0, 1, 589, 358)"><g clip-path="url(#24fd2ec8f0)"><g fill="#ffffff" fill-opacity="1"><g transform="translate(17.081073, 16.776097)"><g><path d="M -3.5625 30 L -11.78125 30 L -11.78125 0 L -3.5625 0 Z M -3.5625 30 "/></g></g></g></g></g><g transform="matrix(1, 0, 0, 1, 589, 411)"><g clip-path="url(#8a389c053e)"><g fill="#ffffff" fill-opacity="1"><g transform="translate(17.081073, 17.056212)"><g><path d="M -3.5625 30 L -11.78125 30 L -11.78125 0 L -3.5625 0 Z M -3.5625 30 "/></g></g></g></g></g><g transform="matrix(1, 0, 0, 1, 589, 465)"><g clip-path="url(#b80821c3ee)"><g fill="#ffffff" fill-opacity="1"><g transform="translate(17.081073, 16.336355)"><g><path d="M -3.5625 30 L -11.78125 30 L -11.78125 0 L -3.5625 0 Z M -3.5625 30 "/></g></g></g></g></g><g transform="matrix(1, 0, 0, 1, 589, 518)"><g clip-path="url(#3d8e69e556)"><g fill="#ffffff" fill-opacity="1"><g transform="translate(17.081073, 16.61647)"><g><path d="M -3.5625 30 L -11.78125 30 L -11.78125 0 L -3.5625 0 Z M -3.5625 30 "/></g></g></g></g></g></svg>